<svg width="45" height="45" viewBox="0 0 45 45" fill="none" xmlns="http://www.w3.org/2000/svg">
<path d="M30.9422 36.4088C30.9422 37.0662 30.4112 37.599 29.7538 37.599C29.0983 37.599 28.5655 37.0662 28.5655 36.4088V17.2358H23.6107V36.4088C23.6107 37.0662 23.0778 37.599 22.4204 37.599C21.764 37.599 21.2311 37.0662 21.2311 36.4088V17.2358H16.7094V36.4088C16.7094 37.0662 16.1775 37.599 15.5201 37.599C14.8636 37.599 14.3308 37.0662 14.3308 36.4088V17.2358H9.31006V42.1858C9.31006 42.9017 9.88869 43.4803 10.6037 43.4803H34.3992C35.1124 43.4803 35.691 42.9017 35.691 42.1858V17.2358H30.9422V36.4088Z" fill="#414042"/>
<path d="M37.63 7.71615H29.7537V2.70955C29.7537 2.0527 29.2209 1.52026 28.5654 1.52026H16.7093C16.0537 1.52026 15.52 2.05266 15.52 2.70955V7.71615H7.37181C6.71536 7.71615 6.18164 8.24762 6.18164 8.90496V11.1865C6.18164 11.8424 6.7154 12.3753 7.37181 12.3753H37.63C38.2855 12.3753 38.8184 11.8424 38.8184 11.1865V8.90496C38.8184 8.24762 38.2855 7.71615 37.63 7.71615ZM24.8996 7.86446H20.104C19.4467 7.86446 18.9147 7.33255 18.9147 6.67517C18.9147 6.0178 19.4467 5.48544 20.104 5.48544H24.8996C25.5569 5.48544 26.0897 6.0178 26.0897 6.67517C26.0898 7.33251 25.557 7.86446 24.8996 7.86446Z" fill="#414042"/>
</svg>
