<svg width="45" height="45" viewBox="0 0 45 45" fill="none" xmlns="http://www.w3.org/2000/svg">
<g id="4">
<g id="Group">
<path id="Vector" d="M9.00963 43.2916C11.7837 42.6022 17.6952 41.1273 20.4711 40.4352C20.418 40.3967 6.20262 31.8256 6.14404 31.7981C6.8371 34.5721 8.31841 40.5176 9.00963 43.2916Z" fill="#414042"/>
<path id="Vector_2" d="M38.353 9.87311L25.033 1.86864C24.5752 1.59306 24.1276 1.68188 23.8895 2.08015L20.7969 7.20066L35.6888 16.1866L38.7485 11.0916C38.9884 10.6943 38.8108 10.1487 38.353 9.87311Z" fill="#414042"/>
<path id="Vector_3" d="M22.8076 11.5071C21.0452 10.4433 19.6802 9.61837 19.3195 9.40137C15.7993 15.2644 10.9058 23.6113 7.38281 29.4744C7.73895 29.6886 9.07291 30.4906 10.7968 31.5261L22.8076 11.5071Z" fill="#414042"/>
<path id="Vector_4" d="M28.3943 14.8808C27.3469 14.2482 26.2666 13.5963 25.2156 12.9609L13.2075 32.9735C14.2595 33.6052 15.3425 34.257 16.3908 34.8869L28.3943 14.8808Z" fill="#414042"/>
<path id="Vector_5" d="M18.8013 36.3356C20.4822 37.3445 21.7749 38.1227 22.1209 38.3305C25.653 32.4537 30.6921 24.2442 34.2104 18.3931C33.858 18.1815 32.5286 17.3787 30.8019 16.335L18.8013 36.3356Z" fill="#414042"/>
</g>
</g>
</svg>
